<svg xmlns="http://www.w3.org/2000/svg" xmlns:xlink="http://www.w3.org/1999/xlink" width="288" height="418" viewBox="0 0 288 418">
  <defs>
    <clipPath id="clip-path">
      <rect id="Ret칙ngulo_2605" data-name="Ret칙ngulo 2605" width="288" height="418" transform="translate(1370 3501)" fill="#4a7866"/>
    </clipPath>
  </defs>
  <g id="Grupo_de_m치scara_10" data-name="Grupo de m치scara 10" transform="translate(-1370 -3501)" clip-path="url(#clip-path)">
    <g id="Grupo_107" data-name="Grupo 107" transform="translate(1009.11 2674.889)">
      <g id="Grupo_97" data-name="Grupo 97" transform="translate(360.586 826.111)">
        <path id="Caminho_70" data-name="Caminho 70" d="M641.108,1243.772c-114.5,0-207.637-93.146-207.637-207.637a194.523,194.523,0,0,1,1.687-25.08c-44.8-9.217-77.1-50.711-74.416-97.042,2.755-47.65,42.318-86.239,90.073-87.847a93.676,93.676,0,0,1,76.96,36.185,206.6,206.6,0,0,1,226.661,0A93.6,93.6,0,0,1,831.4,826.166c47.756,1.609,87.318,40.2,90.068,87.853h0c2.677,46.33-29.616,87.819-74.411,97.036a195.484,195.484,0,0,1,1.681,25.08C848.739,1150.626,755.6,1243.772,641.108,1243.772ZM453.921,844.757c-.829,0-1.653.011-2.482.039-38.221,1.286-69.886,32.165-72.09,70.292-2.238,38.722,26,73.209,64.281,78.518a12.628,12.628,0,0,1,8.444,4.987,12.451,12.451,0,0,1,2.337,9.417,183.237,183.237,0,0,0-2.3,28.125c0,104.211,84.786,189,189,189s189-84.786,189-189a183.231,183.231,0,0,0-2.3-28.125,12.45,12.45,0,0,1,2.337-9.417,12.629,12.629,0,0,1,8.444-4.987c38.277-5.31,66.513-39.8,64.286-78.513h0c-2.2-38.132-33.869-69.012-72.09-70.3A75.162,75.162,0,0,0,764.7,880.189a9.326,9.326,0,0,1-13.369,2.644,188.02,188.02,0,0,0-220.455,0,9.326,9.326,0,0,1-13.369-2.644A75.088,75.088,0,0,0,453.921,844.757Z" transform="translate(-360.586 -826.111)" fill="#4a7866"/>
      </g>
      <g id="Grupo_100" data-name="Grupo 100" transform="translate(537.131 1017.128)">
        <g id="Grupo_98" data-name="Grupo 98">
          <path id="Caminho_71" data-name="Caminho 71" d="M392.3,882.933a22.506,22.506,0,1,1,22.509,22.508A22.507,22.507,0,0,1,392.3,882.933Z" transform="translate(-392.305 -860.43)" fill="#4a7866"/>
        </g>
        <g id="Grupo_99" data-name="Grupo 99" transform="translate(162.937)">
          <path id="Caminho_72" data-name="Caminho 72" d="M421.579,882.933a22.506,22.506,0,1,1,22.5,22.508A22.5,22.5,0,0,1,421.579,882.933Z" transform="translate(-421.579 -860.43)" fill="#4a7866"/>
        </g>
      </g>
      <g id="Grupo_104" data-name="Grupo 104" transform="translate(531.02 1020.011)">
        <g id="Grupo_101" data-name="Grupo 101">
          <path id="Caminho_73" data-name="Caminho 73" d="M501.3,1081.114A110.083,110.083,0,1,1,611.378,971.031,110.209,110.209,0,0,1,501.3,1081.114Zm0-201.531a91.448,91.448,0,1,0,91.443,91.448A91.552,91.552,0,0,0,501.3,879.583Z" transform="translate(-391.207 -860.948)" fill="#4a7866"/>
        </g>
        <g id="Grupo_102" data-name="Grupo 102" transform="translate(78.813 78.813)">
          <path id="Caminho_74" data-name="Caminho 74" d="M405.367,906.377a31.272,31.272,0,1,1,31.275,31.275A31.272,31.272,0,0,1,405.367,906.377Z" transform="translate(-405.367 -875.108)" fill="#4a7866"/>
        </g>
        <g id="Grupo_103" data-name="Grupo 103" transform="translate(100.765 113.923)">
          <path id="Caminho_75" data-name="Caminho 75" d="M418.634,991.254a9.324,9.324,0,0,1-9.323-9.323V890.739a9.32,9.32,0,1,1,18.64,0v91.192A9.322,9.322,0,0,1,418.634,991.254Z" transform="translate(-409.311 -881.416)" fill="#4a7866"/>
        </g>
      </g>
      <g id="Grupo_105" data-name="Grupo 105" transform="translate(786.323 876.583)">
        <path id="Caminho_76" data-name="Caminho 76" d="M479.127,921.106a22.287,22.287,0,0,1-3.006-.239l-5.688-.479-2.744-5.359a148.945,148.945,0,0,0-26.828-42.8l-3.785-4.246,2.06-5.316a42.93,42.93,0,1,1,39.991,58.442Zm-20.182-56.427a167.445,167.445,0,0,1,23.477,37.465,24.271,24.271,0,1,0-23.477-37.465Z" transform="translate(-437.076 -835.179)" fill="#4a7866"/>
      </g>
      <g id="Grupo_106" data-name="Grupo 106" transform="translate(410.874 876.583)">
        <path id="Caminho_77" data-name="Caminho 77" d="M412.584,921.106a42.963,42.963,0,1,1,40-58.442l2.059,5.31-3.79,4.258a148.955,148.955,0,0,0-26.828,42.8l-2.154,5.282-6.267.551A21.61,21.61,0,0,1,412.584,921.106Zm2.811-9.6h0Zm-2.811-57.685a24.328,24.328,0,0,0-3.345,48.424,167.63,167.63,0,0,1,23.527-37.565A24.048,24.048,0,0,0,412.584,853.819Z" transform="translate(-369.621 -835.179)" fill="#4a7866"/>
      </g>
    </g>
  </g>
</svg>
