<svg id="Grupo_12" data-name="Grupo 12" xmlns="http://www.w3.org/2000/svg" width="45.96" height="48.501" viewBox="0 0 45.96 48.501">
  <g id="Grupo_4" data-name="Grupo 4" transform="translate(10.189 13.68)">
    <path id="Caminho_4" data-name="Caminho 4" d="M395.154,625.69a10.772,10.772,0,0,1-10.76-10.76v-9.544a.805.805,0,0,1,1.61,0v9.544a9.149,9.149,0,1,0,18.3,0V597.8a6.943,6.943,0,0,1,6.935-6.936.805.805,0,0,1,0,1.61,5.331,5.331,0,0,0-5.325,5.325V614.93A10.772,10.772,0,0,1,395.154,625.69Z" transform="translate(-384.394 -590.869)" fill="#e4aaac"/>
  </g>
  <g id="Grupo_5" data-name="Grupo 5" transform="translate(36.228 9.619)">
    <path id="Caminho_5" data-name="Caminho 5" d="M443.394,592.159a4.866,4.866,0,1,1,4.866-4.866A4.871,4.871,0,0,1,443.394,592.159Zm0-8.121a3.255,3.255,0,1,0,3.255,3.255A3.259,3.259,0,0,0,443.394,584.038Z" transform="translate(-438.528 -582.427)" fill="#e4aaac"/>
  </g>
  <g id="Grupo_6" data-name="Grupo 6" transform="translate(0 1.368)">
    <path id="Caminho_6" data-name="Caminho 6" d="M374.205,592.908a11.007,11.007,0,0,1-10.994-10.994V570.62a5.353,5.353,0,0,1,5.346-5.347.805.805,0,0,1,0,1.611,3.74,3.74,0,0,0-3.736,3.736v11.294a9.384,9.384,0,0,0,18.767,0V570.62a3.74,3.74,0,0,0-3.736-3.736.805.805,0,0,1,0-1.611,5.353,5.353,0,0,1,5.347,5.347v11.294A11.007,11.007,0,0,1,374.205,592.908Z" transform="translate(-363.211 -565.273)" fill="#e4aaac"/>
  </g>
  <g id="Grupo_9" data-name="Grupo 9" transform="translate(4.739 0)">
    <g id="Grupo_7" data-name="Grupo 7">
      <path id="Caminho_7" data-name="Caminho 7" d="M375.237,566.776a2.173,2.173,0,1,1,2.173-2.174A2.176,2.176,0,0,1,375.237,566.776Zm0-2.736a.563.563,0,1,0,.563.563A.564.564,0,0,0,375.237,564.039Z" transform="translate(-373.063 -562.429)" fill="#e4aaac"/>
    </g>
    <g id="Grupo_8" data-name="Grupo 8" transform="translate(8.164)">
      <path id="Caminho_8" data-name="Caminho 8" d="M392.209,566.776a2.173,2.173,0,1,1,2.173-2.174A2.176,2.176,0,0,1,392.209,566.776Zm0-2.736a.563.563,0,1,0,.563.563A.564.564,0,0,0,392.209,564.039Z" transform="translate(-390.035 -562.429)" fill="#e4aaac"/>
    </g>
  </g>
  <g id="Grupo_10" data-name="Grupo 10" transform="translate(0 13.001)">
    <path id="Caminho_9" data-name="Caminho 9" d="M374.2,601.258a11.007,11.007,0,0,1-10.994-10.994.805.805,0,0,1,1.61,0,9.4,9.4,0,0,0,9.383,9.384.805.805,0,1,1,0,1.61Z" transform="translate(-363.211 -589.458)" fill="#e4aaac"/>
  </g>
  <g id="Grupo_11" data-name="Grupo 11" transform="translate(10.189 13.001)">
    <path id="Caminho_10" data-name="Caminho 10" d="M385.2,601.258a.805.805,0,0,1,0-1.61,9.4,9.4,0,0,0,9.383-9.384.805.805,0,0,1,1.611,0A11.007,11.007,0,0,1,385.2,601.258Z" transform="translate(-384.394 -589.458)" fill="#e4aaac"/>
  </g>
</svg>
