<svg id="Grupo_33" data-name="Grupo 33" xmlns="http://www.w3.org/2000/svg" width="32.156" height="41.461" viewBox="0 0 32.156 41.461">
  <g id="Grupo_26" data-name="Grupo 26" transform="translate(3.361 11.41)">
    <path id="Caminho_18" data-name="Caminho 18" d="M655,611.147a15.8,15.8,0,0,1-14.324-9.221.806.806,0,0,1,.733-1.14H668.59a.805.805,0,0,1,.733,1.14A15.8,15.8,0,0,1,655,611.147ZM642.724,602.4a14.12,14.12,0,0,0,24.549,0Z" transform="translate(-640.601 -600.786)" fill="#e4aaac"/>
  </g>
  <g id="Grupo_27" data-name="Grupo 27" transform="translate(9.543 20.404)">
    <path id="Caminho_19" data-name="Caminho 19" d="M669.078,640.541h-14.82a.805.805,0,1,1,0-1.61,6.617,6.617,0,0,0,6.6-6.367c0-.08,0-.161,0-.242a.787.787,0,0,1,.008-.113v-11.92a.805.805,0,0,1,1.611,0v12.032c0,.081,0,.162,0,.242a6.617,6.617,0,0,0,6.6,6.367.805.805,0,0,1,0,1.61Zm-9.938-1.61H664.2a8.276,8.276,0,0,1-2.528-3.053A8.276,8.276,0,0,1,659.14,638.931Z" transform="translate(-653.452 -619.484)" fill="#e4aaac"/>
  </g>
  <g id="Grupo_28" data-name="Grupo 28" transform="translate(0 1.018)">
    <path id="Caminho_20" data-name="Caminho 20" d="M648.275,604.4h-2.052a12.61,12.61,0,1,1,0-25.22h.866a7.914,7.914,0,0,1,4.043,1.109.805.805,0,1,1-.824,1.384,6.3,6.3,0,0,0-3.22-.883h-.866a11,11,0,0,0,0,22h2.052a.805.805,0,0,1,0,1.61Z" transform="translate(-633.613 -579.182)" fill="#e4aaac"/>
  </g>
  <g id="Grupo_29" data-name="Grupo 29" transform="translate(20.34 24.766)">
    <path id="Caminho_21" data-name="Caminho 21" d="M677.53,640.009a.806.806,0,0,1-.314-1.547,4.392,4.392,0,0,0-.7-8.319.805.805,0,1,1,.37-1.567,6,6,0,0,1,.954,11.37A.8.8,0,0,1,677.53,640.009Z" transform="translate(-675.899 -628.553)" fill="#e4aaac"/>
  </g>
  <g id="Grupo_30" data-name="Grupo 30" transform="translate(14.179 0)">
    <path id="Caminho_22" data-name="Caminho 22" d="M668.383,583.446a6.574,6.574,0,0,1-2.416-.62,6.227,6.227,0,0,1-2.25-1.375,2.426,2.426,0,0,1-.376-2.734c1.069-2.571,3.659-1.493,4.765-1.033s3.695,1.538,2.625,4.109A2.393,2.393,0,0,1,668.383,583.446Zm-2.7-4.782c-.521,0-.7.281-.86.672-.247.595-.086.846.085,1.036a5.059,5.059,0,0,0,1.673.967c2.06.857,2.379.509,2.659-.165s.3-1.145-1.757-2A5.212,5.212,0,0,0,665.688,578.665Z" transform="translate(-663.092 -577.065)" fill="#e4aaac"/>
  </g>
  <g id="Grupo_31" data-name="Grupo 31" transform="translate(20.271 3.613)">
    <path id="Caminho_23" data-name="Caminho 23" d="M678.318,586.919a.809.809,0,0,1-.31-.062l-1.757-.731a.805.805,0,1,1,.619-1.487l1.535.639,1.82-.338a.806.806,0,1,1,.294,1.584l-2.055.382A.839.839,0,0,1,678.318,586.919Z" transform="translate(-675.756 -584.576)" fill="#e4aaac"/>
  </g>
  <g id="Grupo_32" data-name="Grupo 32" transform="translate(22.177 4.283)">
    <path id="Caminho_24" data-name="Caminho 24" d="M681.553,589.369a.8.8,0,0,1-.7-.4l-1.028-1.788a.805.805,0,1,1,1.4-.8l1.028,1.788a.806.806,0,0,1-.7,1.207Z" transform="translate(-679.719 -585.97)" fill="#e4aaac"/>
  </g>
</svg>
