<svg id="Grupo_25" data-name="Grupo 25" xmlns="http://www.w3.org/2000/svg" width="29.036" height="43.464" viewBox="0 0 29.036 43.464">
  <g id="Grupo_20" data-name="Grupo 20" transform="translate(4.021 0)">
    <g id="Grupo_13" data-name="Grupo 13" transform="translate(2.127 14.784)">
      <path id="Caminho_11" data-name="Caminho 11" d="M529.266,611.886a.8.8,0,0,1-.443-.134l-10.047-6.639a.805.805,0,1,1,.888-1.344l10.047,6.639a.806.806,0,0,1-.444,1.478Z" transform="translate(-518.414 -603.636)" fill="#e4aaac"/>
    </g>
    <g id="Grupo_16" data-name="Grupo 16" transform="translate(0 7.842)">
      <g id="Grupo_14" data-name="Grupo 14" transform="translate(0 4.033)">
        <path id="Caminho_12" data-name="Caminho 12" d="M521.1,618.972a.808.808,0,0,1-.181-.021,13.732,13.732,0,0,1-4.5-1.936,5.389,5.389,0,0,1-1.525-7.468l4.369-6.611a.806.806,0,0,1,1.116-.228l3.889,2.57a.8.8,0,0,1,.228,1.115l-3.1,4.7a1.1,1.1,0,0,0,.629,1.666,7.494,7.494,0,0,0,8.259-3.1l.343-.519a7.525,7.525,0,0,0-1.706-10.1.806.806,0,0,1,.977-1.281,9.142,9.142,0,0,1,2.073,12.273l-.343.519a9.1,9.1,0,0,1-10.03,3.765,2.713,2.713,0,0,1-1.546-4.108l2.66-4.025-2.546-1.682-3.925,5.939a3.779,3.779,0,0,0,1.069,5.236,12.138,12.138,0,0,0,3.978,1.71.805.805,0,0,1-.18,1.59Z" transform="translate(-513.993 -597.589)" fill="#e4aaac"/>
      </g>
      <g id="Grupo_15" data-name="Grupo 15" transform="translate(13.023)">
        <path id="Caminho_13" data-name="Caminho 13" d="M541.873,614.376a.806.806,0,0,1-.236-1.576,12.186,12.186,0,0,0,6.577-4.924l.343-.519a12.245,12.245,0,0,0-3.188-16.688.805.805,0,1,1,.921-1.321,13.866,13.866,0,0,1,3.611,18.9l-.344.519a13.8,13.8,0,0,1-7.449,5.576A.8.8,0,0,1,541.873,614.376Z" transform="translate(-541.068 -589.204)" fill="#e4aaac"/>
      </g>
    </g>
    <g id="Grupo_17" data-name="Grupo 17" transform="translate(8.444)">
      <path id="Caminho_14" data-name="Caminho 14" d="M535.613,589.164a1.915,1.915,0,0,1-1.059-.32l-2.141-1.415a1.931,1.931,0,0,1-.546-2.672l4.506-6.817a2.018,2.018,0,0,0,.294-.713l.582-2.879a1.8,1.8,0,0,1,2.764-1.149l4.651,3.074a1.805,1.805,0,0,1,.027,2.993l-2.421,1.664a2.011,2.011,0,0,0-.54.55l-4.506,6.818a1.913,1.913,0,0,1-1.222.826A1.948,1.948,0,0,1,535.613,589.164Zm3.215-14.5-.582,2.879a3.608,3.608,0,0,1-.529,1.282l-4.506,6.818a.318.318,0,0,0,.09.44l2.141,1.415a.316.316,0,0,0,.439-.09l4.506-6.817a3.611,3.611,0,0,1,.972-.99l2.421-1.664a.194.194,0,0,0,0-.322l-4.651-3.074a.183.183,0,0,0-.181-.017.185.185,0,0,0-.116.141Z" transform="translate(-531.548 -572.9)" fill="#e4aaac"/>
    </g>
    <g id="Grupo_18" data-name="Grupo 18" transform="translate(13.309 5.306)">
      <rect id="Ret창ngulo_13" data-name="Ret창ngulo 13" width="1.611" height="4.506" transform="translate(0 1.344) rotate(-56.543)" fill="#e4aaac"/>
    </g>
    <g id="Grupo_19" data-name="Grupo 19" transform="translate(10.512 9.045)">
      <rect id="Ret창ngulo_14" data-name="Ret창ngulo 14" width="1.611" height="4.778" transform="translate(0 1.344) rotate(-56.542)" fill="#e4aaac"/>
    </g>
  </g>
  <g id="Grupo_21" data-name="Grupo 21" transform="translate(8.425 27.635)">
    <path id="Caminho_15" data-name="Caminho 15" d="M534.531,639.451a.806.806,0,0,1-.708-.42l-3.506-6.428a1.223,1.223,0,0,0-2.148,0l-3.506,6.428a.806.806,0,1,1-1.415-.771l3.506-6.429a2.834,2.834,0,0,1,4.976,0l3.507,6.429a.806.806,0,0,1-.707,1.192Z" transform="translate(-523.15 -630.354)" fill="#e4aaac"/>
  </g>
  <g id="Grupo_24" data-name="Grupo 24" transform="translate(0 35.249)">
    <g id="Grupo_22" data-name="Grupo 22">
      <path id="Caminho_16" data-name="Caminho 16" d="M531.844,654.4H508.46a2.824,2.824,0,0,1-2.307-4.453l1.811-2.566a2.826,2.826,0,0,1,2.307-1.2h19.762a2.828,2.828,0,0,1,2.308,1.2l1.811,2.566a2.824,2.824,0,0,1-2.307,4.453Zm-21.573-6.6a1.214,1.214,0,0,0-.991.514l-1.811,2.566a1.214,1.214,0,0,0,.991,1.914h23.385a1.214,1.214,0,0,0,.991-1.914l-1.811-2.566a1.214,1.214,0,0,0-.991-.514Z" transform="translate(-505.634 -646.183)" fill="#e4aaac"/>
    </g>
    <g id="Grupo_23" data-name="Grupo 23" transform="translate(0.638 4.04)">
      <path id="Caminho_17" data-name="Caminho 17" d="M534.087,656.193H507.765a.805.805,0,0,1,0-1.611h26.322a.805.805,0,1,1,0,1.611Z" transform="translate(-506.96 -654.582)" fill="#e4aaac"/>
    </g>
  </g>
</svg>
