<svg xmlns="http://www.w3.org/2000/svg" xmlns:xlink="http://www.w3.org/1999/xlink" width="72" height="72" viewBox="0 0 72 72">
  <defs>
    <filter id="Elipse_47" x="0" y="0" width="72" height="72" filterUnits="userSpaceOnUse">
      <feOffset dy="3" input="SourceAlpha"/>
      <feGaussianBlur stdDeviation="3" result="blur"/>
      <feFlood flood-opacity="0.161"/>
      <feComposite operator="in" in2="blur"/>
      <feComposite in="SourceGraphic"/>
    </filter>
  </defs>
  <g id="icone-telefone-open" transform="translate(9 6)">
    <g id="icon" transform="translate(-1692 -920)">
      <g transform="matrix(1, 0, 0, 1, 1683, 914)" filter="url(#Elipse_47)">
        <circle id="Elipse_47-2" data-name="Elipse 47" cx="27" cy="27" r="27" transform="translate(9 6)" fill="#f97074"/>
      </g>
      <path id="phone-call" d="M13,1a1,1,0,0,1,1-1A10.011,10.011,0,0,1,24,10a1,1,0,1,1-2,0,8.009,8.009,0,0,0-8-8,1,1,0,0,1-1-1Zm1,5a4,4,0,0,1,4,4,1,1,0,0,0,2,0,6.006,6.006,0,0,0-6-6,1,1,0,0,0,0,2Zm9.093,10.739a3.1,3.1,0,0,1,0,4.378l-.91,1.049c-8.19,7.841-28.12-12.084-20.4-20.3l1.15-1A3.081,3.081,0,0,1,7.26.906c.031.031,1.884,2.438,1.884,2.438a3.1,3.1,0,0,1-.007,4.282L7.979,9.082a12.781,12.781,0,0,0,6.931,6.945l1.465-1.165a3.1,3.1,0,0,1,4.281-.006S23.062,16.708,23.093,16.739Z" transform="translate(1706.961 935.002)" fill="#fff"/>
    </g>
  </g>
</svg>
