<svg xmlns="http://www.w3.org/2000/svg" width="199.5" height="426" viewBox="0 0 199.5 426">
  <path id="Interseção_2" data-name="Interseção 2" d="M250.672,425.5a45.961,45.961,0,0,1-7.361-2.017,47.62,47.62,0,0,1-14.34-8.344,52.737,52.737,0,0,1-7.092-7.265,7.462,7.462,0,1,1,11.631-9.351,37.119,37.119,0,0,0,5.065,5.2,32.75,32.75,0,0,0,9.863,5.751c8.61,3.149,18.077,2.446,27.391-2.022,13.81-6.629,25.548-20.977,31.4-38.377,8.175-24.317,3.559-50.586-11.221-63.866a7.474,7.474,0,0,1-2.472-5.55V284.717a7.46,7.46,0,0,1,3.8-6.5c7.355-4.143,10.928-12.218,10.928-24.7a53.745,53.745,0,0,0-10.616-32.225,7.459,7.459,0,0,1,11.992-8.874,68.571,68.571,0,0,1,13.542,41.1c0,19.221-7.323,29.619-14.728,35.214v7.755c17.418,17.85,22.643,48.4,12.914,77.341-7.207,21.454-21.453,38.609-39.072,47.073a55.123,55.123,0,0,1-14.089,4.6Zm-80.719-18.633V391.949h22.587a7.459,7.459,0,0,1,0,14.918Zm90.253-11.391a7.458,7.458,0,0,1,1.648-14.825c8.411.944,17.726-7.533,21.614-19.7a36.421,36.421,0,0,0,.656-20.726,65.8,65.8,0,0,1-114.171,30.34V338.784A50.908,50.908,0,0,0,270.47,327.352v-2.157a7.417,7.417,0,0,1-3.9,2.9c-7.03,2.24-13.293,9.563-16.339,19.119a37.524,37.524,0,0,0-1.533,16.6,7.463,7.463,0,0,1-6.339,8.437,7.671,7.671,0,0,1-1.056.076,7.463,7.463,0,0,1-7.377-6.414,52.728,52.728,0,0,1,2.089-23.235c4.567-14.291,14.3-25.053,26.029-28.79a7.439,7.439,0,0,1,8.424,2.9V226.94a43.475,43.475,0,0,1,36.722-42.892,31.275,31.275,0,0,1,61.261,1.357v11.179a31.274,31.274,0,0,1-60.954,2.587,28.537,28.537,0,0,0-22.11,27.769V327.352q0,1.833-.1,3.642a7.461,7.461,0,0,1,12.394,2.688c3.443,9.715,3.443,21.016,0,31.814-5.733,17.931-19.966,30.14-34.6,30.14A25.963,25.963,0,0,1,260.206,395.476ZM321.333,191a16.351,16.351,0,1,0,16.348-16.352A16.365,16.365,0,0,0,321.333,191ZM207.624,367.974a90.009,90.009,0,0,1,4.713-33.641c7.1-21.111,21.173-38.155,38.261-46.672-9.119-7.443-13.908-19.141-13.908-34.144V247.9a7.457,7.457,0,0,1,14.915,0v5.618c0,11.747,3.617,19.9,10.749,24.229a7.452,7.452,0,0,1,3.586,6.375v8.213a7.451,7.451,0,0,1-4.789,6.963c-15.311,5.866-28.269,20.741-34.68,39.793a76.22,76.22,0,0,0-3.951,28.086,7.458,7.458,0,0,1-7.048,7.844c-.138.009-.275.009-.4.009A7.458,7.458,0,0,1,207.624,367.974Zm-37.67-104.767a52.371,52.371,0,0,0,43.529-51.55v-7a108.348,108.348,0,0,1-43.529,12.227V141.5a16.221,16.221,0,0,1,.577,29.089v29.4a44.433,44.433,0,0,0-.577-87.7V97.239a58.982,58.982,0,0,1,26.309,9.773,9.73,9.73,0,1,1,13.391,12.442,59.244,59.244,0,0,1,3.9,67.9,93.1,93.1,0,0,0,42.591-78.2,30.265,30.265,0,0,1,17.2-27.477,35.4,35.4,0,0,0,18.678-40.5,34.533,34.533,0,0,0-24.71-25.093c-15.556-3.987-30.956,2.089-39.263,15.462a7.457,7.457,0,0,1-10.7,2.116,92.35,92.35,0,0,0-47.4-17.33V1.384a106.894,106.894,0,0,1,49.988,16.064A50.074,50.074,0,0,1,251.034.5h14.22a52.516,52.516,0,0,1,5.756,1.133A49.606,49.606,0,0,1,306.517,37.68c5.648,23.374-5.3,46.979-26.625,57.4a15.391,15.391,0,0,0-8.83,13.827A107.941,107.941,0,0,1,240.541,184.4h13.514a69.456,69.456,0,0,1,15.2,1.679,7.461,7.461,0,0,1-1.631,14.74,7.658,7.658,0,0,1-1.643-.183,54.453,54.453,0,0,0-11.925-1.318H228.4v12.34a67.3,67.3,0,0,1-58.447,66.629ZM255.645,74.632l-4.272-.584L249.2,69.994A72.212,72.212,0,0,0,236.165,49.2L233.131,45.8l1.644-4.25a24.411,24.411,0,1,1,22.746,33.227A13.774,13.774,0,0,1,255.645,74.632Zm-4.758-31.067a86.839,86.839,0,0,1,9.868,15.747,9.522,9.522,0,0,0-3.234-18.473A9.38,9.38,0,0,0,250.887,43.565Z" transform="translate(-169.453 0)" fill="#e4aaac" stroke="rgba(0,0,0,0)" stroke-width="1"/>
</svg>
